<svg width="15" height="20" viewBox="0 0 15 20" fill="none" xmlns="http://www.w3.org/2000/svg">
<path d="M8.90625 0C8.90625 0 9.6 2.48476 9.6 4.5007C9.6 6.51664 8.33437 7.99812 6.40312 7.99812C4.47188 7.99812 3 6.43226 3 4.5007L3.02813 4.16315C1.13438 6.4135 0 9.32958 0 12.4988C0 16.6432 3.35625 20 7.5 20C11.6438 20 15 16.6432 15 12.4988C15 7.44491 12.5719 2.93483 8.90625 0V0ZM7.5 16.512C6.01875 16.512 4.81875 15.3118 4.81875 13.8303C4.81875 12.3488 6.01875 11.1486 7.5 11.1486C8.98125 11.1486 10.1812 12.3488 10.1812 13.8303C10.1812 15.3118 8.98125 16.512 7.5 16.512Z" fill="white"/>
</svg>
