<svg width="18" height="18" viewBox="0 0 18 18" fill="none" xmlns="http://www.w3.org/2000/svg">
<path d="M8.99199 0.666664C4.39199 0.666664 0.666992 4.4 0.666992 9C0.666992 13.6 4.39199 17.3333 8.99199 17.3333C13.6003 17.3333 17.3337 13.6 17.3337 9C17.3337 4.4 13.6003 0.666664 8.99199 0.666664ZM9.00033 15.6667C5.31699 15.6667 2.33366 12.6833 2.33366 9C2.33366 5.31666 5.31699 2.33333 9.00033 2.33333C12.6837 2.33333 15.667 5.31666 15.667 9C15.667 12.6833 12.6837 15.6667 9.00033 15.6667ZM9.41699 4.83333H8.16699V9.83333L12.542 12.4583L13.167 11.4333L9.41699 9.20833V4.83333Z" fill="#147EFF"/>
</svg>
