<svg width="124" height="32" viewBox="0 0 124 32" fill="none" xmlns="http://www.w3.org/2000/svg">
<path d="M39.2725 0.013702C35.4673 0.013702 30.5322 1.64887 27.8207 4.38481V12.6886H14.76V19.3114H21.2677V23.815C20.5672 24.4773 18.2986 25.3634 16.4637 25.3634C10.9999 25.3634 7.42517 21.7094 7.42517 16C7.42517 9.64202 11.3163 6.6366 16.3417 6.6366C18.7008 6.6366 21.3671 7.60948 22.5873 8.92035L25.5158 3.22466C23.0257 1.2378 20.052 0 15.5102 0C5.89766 0 0 7.11162 0 15.9863C0 25.6146 5.87506 31.9726 16.3824 31.9726C20.1831 31.9726 25.1227 30.3374 27.8297 27.6015V19.3114H40.8949V12.6886H34.3872V8.18498C35.0831 7.52269 37.3563 6.6366 39.1912 6.6366C44.655 6.6366 48.2297 10.2906 48.2297 16C48.2297 22.358 44.3386 25.3634 39.3132 25.3634C36.9541 25.3634 34.2878 24.3905 33.0676 23.0796L30.1391 28.7753C32.6292 30.7622 35.5984 32 40.1447 32C49.7572 31.9863 55.6775 24.8747 55.6775 16C55.6775 6.37168 49.7572 0.013702 39.2725 0.013702Z" fill="url(#paint0_linear_77_104)"/>
<path d="M87.3803 20.0651L81.4781 0.543579H74.4461L68.7202 20.0651L63.5637 0.543579H55.6549L64.7025 31.4565H71.3865L77.6774 11.5833L84.0586 31.4565H90.7426L99.3518 0.543579H92.6226L87.3803 20.0651Z" fill="url(#paint1_linear_77_104)"/>
<path d="M111.653 0.470459C109.294 0.470459 104.007 0.557243 102.303 0.557243V31.4702H109.294V20.9649C110.427 21.0672 111.564 21.1114 112.702 21.0974C119.783 21.0974 124 16.2375 124 10.72C124.018 5.3577 120.963 0.470459 111.653 0.470459ZM112.485 14.4699C111.418 14.4613 110.352 14.3865 109.294 14.2461V7.16644C110.736 7.12533 111.436 7.07965 112.354 7.07965C114.844 7.07965 116.593 7.92007 116.593 10.656C116.593 13.6614 114.32 14.4562 112.485 14.4562V14.4699Z" fill="url(#paint2_linear_77_104)"/>
<defs>
<linearGradient id="paint0_linear_77_104" x1="28.5526" y1="-0.410256" x2="28.5526" y2="32.8205" gradientUnits="userSpaceOnUse">
<stop stop-color="#00EA88"/>
<stop offset="0.49" stop-color="#12D6C2"/>
<stop offset="0.93" stop-color="#147EFF"/>
</linearGradient>
<linearGradient id="paint1_linear_77_104" x1="76.6842" y1="0.410291" x2="76.2716" y2="31.5897" gradientUnits="userSpaceOnUse">
<stop stop-color="#00EA88"/>
<stop offset="0.49" stop-color="#12D6C2"/>
<stop offset="0.93" stop-color="#147EFF"/>
</linearGradient>
<linearGradient id="paint2_linear_77_104" x1="109.316" y1="0.410263" x2="109.316" y2="31.5897" gradientUnits="userSpaceOnUse">
<stop stop-color="#00EA88"/>
<stop offset="0.49" stop-color="#12D6C2"/>
<stop offset="0.93" stop-color="#147EFF"/>
</linearGradient>
</defs>
</svg>
