<svg width="78" height="28" viewBox="0 0 78 28" fill="none" xmlns="http://www.w3.org/2000/svg">
<path d="M59.7763 10.99H58.1454C57.9681 10.99 57.7908 10.92 57.649 10.78L57.0108 10.045C56.8336 9.83499 56.479 9.79999 56.2663 10.01L56.2308 10.045L55.6636 10.675C55.4863 10.885 55.2027 10.99 54.9545 10.99H46.0908C45.8427 11.725 45.6654 12.46 45.5945 13.23H53.9263C54.0681 13.23 54.2099 13.16 54.3163 13.055L55.0963 12.25C55.2027 12.145 55.3445 12.11 55.4508 12.11H55.4863C55.6281 12.11 55.7699 12.18 55.8763 12.285L56.5145 13.02C56.6208 13.16 56.8336 13.23 57.0108 13.23H63.8181C63.7472 12.46 63.6054 11.725 63.3218 10.99H59.7763Z" fill="#2ED8A7"/>
<path d="M50.6645 17.92C50.8063 17.92 50.9481 17.85 51.0545 17.745L51.8345 16.94C51.9409 16.835 52.0827 16.8 52.1891 16.8H52.2245C52.3663 16.8 52.5081 16.87 52.6145 16.975L53.2527 17.71C53.3945 17.85 53.5718 17.92 53.7491 17.92H62.9672C63.3218 17.22 63.57 16.45 63.7118 15.68H54.8481C54.6709 15.68 54.4936 15.61 54.3518 15.47L53.7136 14.735C53.6072 14.63 53.4654 14.56 53.3236 14.56C53.1818 14.56 53.04 14.63 52.9336 14.735L52.3663 15.365C52.1891 15.575 51.9054 15.68 51.6218 15.68H45.7363C45.8781 16.45 46.1263 17.22 46.4809 17.92H50.6645Z" fill="#2ED8A7"/>
<path d="M57.2237 8.57501C57.3655 8.57501 57.5073 8.50501 57.6137 8.40001L58.3937 7.59501C58.5 7.49001 58.6419 7.42001 58.7482 7.42001H58.7837C58.9255 7.42001 59.0673 7.49001 59.1737 7.59501L59.8119 8.33001C59.9537 8.47001 60.131 8.54001 60.3082 8.54001H62.081C59.0319 4.55001 53.2882 3.74501 49.2464 6.75501C48.5728 7.28001 47.9346 7.87501 47.4382 8.54001H57.2237V8.57501Z" fill="#2ED8A7"/>
<path d="M53.6783 20.16H51.2674C51.0901 20.16 50.9128 20.09 50.771 19.95L50.1328 19.215C49.9556 19.005 49.601 18.97 49.3883 19.18L49.3528 19.215L48.7856 19.845C48.6083 20.055 48.3247 20.16 48.0765 20.16H48.041C51.4801 23.8 57.2947 24.01 60.9819 20.615C61.1237 20.475 61.301 20.335 61.4428 20.16H53.6783Z" fill="#2ED8A7"/>
<path d="M14.2173 22.47L12.3382 17.99H4.00636L2.16273 22.47H0L8.19 5.565L16.38 22.47H14.2173ZM4.71545 16.31H11.6291L8.15454 9.1L4.71545 16.31Z" fill="#2ED8A7"/>
<path d="M19.3582 22.47V5.53H24.1445C27.8672 5.53 29.8527 7.21 29.8527 10.395C29.8527 13.44 27.7609 15.225 24.1445 15.225H21.4145V22.435H19.3582V22.47ZM21.3791 13.475H23.6482C26.52 13.475 27.7963 12.53 27.7963 10.43C27.7963 8.225 26.52 7.315 23.6482 7.315H21.3791V13.475Z" fill="#2ED8A7"/>
<path d="M37.1209 7.35H31.2V5.53H45.0272V7.35H39.1418V22.47H37.1209V7.35Z" fill="#2ED8A7"/>
<path d="M66.7253 19.39L68.4626 18.235L68.6044 18.515C69.6681 20.44 70.8381 21.21 72.6108 21.21C74.5608 21.21 75.9435 19.88 75.9435 18.235C75.9435 16.695 75.1635 15.68 72.079 14.42C68.5335 12.95 67.2926 11.445 67.2926 9.30999C67.2926 6.96499 69.1717 5.14499 72.3626 5.14499C74.7381 5.14499 76.369 6.15999 77.2908 7.76999L75.8726 8.71499L75.4472 8.60999C74.7026 7.48999 73.8163 6.82499 72.2917 6.82499C70.4126 6.82499 69.349 7.83999 69.349 9.23999C69.349 10.535 70.0581 11.27 73.0717 12.635C77.0426 14.385 77.9999 15.855 77.9999 18.2C77.9999 20.755 75.7663 22.925 72.6108 22.925C69.9163 22.925 68.1081 21.91 66.7253 19.39Z" fill="#2ED8A7"/>
</svg>
