<svg width="36" height="39" viewBox="0 0 36 39" fill="current" xmlns="http://www.w3.org/2000/svg">
<path d="M13.3382 27.0069H1.79432C0.64164 24.5892 0 21.8051 0 18.711C0 7.20824 8.85237 0 19.7262 0C27.7041 0 32.6215 3.9 35.3016 8.40304L27.4315 12.5285C25.9552 10.1389 23.1672 8.2396 19.7262 8.2396C13.7697 8.2396 9.56215 12.799 9.56215 18.711C9.56215 22.1432 10.9817 25.1189 13.3382 27.0069ZM35.8467 27.0069V16.2143H18.2498V23.9692H26.6082V27.0069H35.8467ZM6.6776 35.641H4.37224V38.8309H1.9306V29.4134H6.6776C8.81262 29.4134 9.97666 30.8393 9.97666 32.547C9.97666 34.2546 8.81262 35.641 6.6776 35.641ZM7.48959 32.5357C7.48959 31.8876 7.00694 31.4649 6.35394 31.4649H4.37792V33.584H6.35394C7.00694 33.584 7.48959 33.1725 7.48959 32.5413V32.5357ZM15.6833 29.4134L19.2662 38.8309H16.6088L16.1262 37.4051H12.1855L11.7028 38.8309H9.04543L12.617 29.4134H15.689H15.6833ZM15.4845 35.3593L14.1502 31.5325L12.8271 35.3593H15.4845ZM23.6612 32.9471C22.6107 32.7499 22.0259 32.5808 22.0259 32.0848C22.0259 31.6734 22.3382 31.3522 23.1502 31.3522C23.9621 31.3522 25.0297 31.679 25.8246 32.3272L27.159 30.5913C26.1483 29.729 24.8252 29.2782 23.3035 29.2782C20.8732 29.2782 19.5218 30.6477 19.5218 32.2257C19.5218 34.4575 21.7136 34.852 23.2751 35.162C24.2858 35.3762 24.8991 35.5847 24.8991 36.1201C24.8991 36.571 24.388 36.926 23.5476 36.926C22.253 36.926 21.2025 36.3624 20.5155 35.6861L19.2208 37.5065C20.1748 38.4082 21.5091 39 23.4284 39C25.9722 39 27.3804 37.7432 27.3804 35.8496C27.3804 33.7192 25.217 33.2684 23.6555 32.9415L23.6612 32.9471ZM32.2808 32.9471C31.2303 32.7499 30.6454 32.5808 30.6454 32.0848C30.6454 31.6734 30.9577 31.3522 31.7697 31.3522C32.5817 31.3522 33.6492 31.679 34.4442 32.3272L35.7785 30.5913C34.7678 29.729 33.4448 29.2782 31.923 29.2782C29.4927 29.2782 28.1413 30.6477 28.1413 32.2257C28.1413 34.4575 30.3331 34.852 31.8946 35.162C32.9054 35.3762 33.5186 35.5847 33.5186 36.1201C33.5186 36.571 33.0076 36.926 32.1672 36.926C30.8726 36.926 29.8221 36.3624 29.135 35.6861L27.8404 37.5065C28.7943 38.4082 30.1287 39 32.048 39C34.5918 39 36 37.7432 36 35.8496C36 33.7192 33.8366 33.2684 32.2751 32.9415L32.2808 32.9471Z" fill="current"/>
</svg>
