<svg width="50" height="28" viewBox="0 0 50 28" fill="none" xmlns="http://www.w3.org/2000/svg">
<path d="M35.2846 0C31.8706 0 27.4336 1.4318 25.002 3.82745V11.0984H13.2662V16.8976H19.1159V20.841C18.4866 21.4209 16.4488 22.1928 14.7966 22.1928C9.88877 22.1928 6.6737 18.9853 6.6737 13.994C6.6737 8.4268 10.1648 5.79517 14.6789 5.79517C16.7979 5.79517 19.193 6.64705 20.2931 7.80688L22.9236 2.8196C20.6828 1.08385 18.0157 0 13.932 0C5.29756 0 0 6.22711 0 13.998C0 22.4288 5.29756 27.996 14.7195 27.996C18.1335 27.996 22.5704 26.5642 25.002 24.1685V16.8976H36.7378V11.0984H30.8882V7.15498C31.5174 6.57506 33.5552 5.80317 35.2074 5.80317C40.1153 5.80317 43.3304 9.01071 43.3304 14.002C43.3304 19.5692 39.8352 22.2008 35.3252 22.2008C33.2061 22.2008 30.8111 21.3489 29.711 20.1891L27.0805 25.1764C29.3172 26.9162 31.9883 28 36.068 28C44.7024 28 50 21.7729 50 14.002C50.0041 5.5672 44.7024 0 35.2846 0Z" fill="white"/>
</svg>
