<svg width="124" height="20" viewBox="0 0 124 20" fill="none" xmlns="http://www.w3.org/2000/svg">
<g clip-path="url(#clip0_170_1350)">
<path d="M27.0057 6.04875C29.2116 6.06875 30.9527 7.8479 30.9215 10.0486C30.8901 12.2502 29.0922 13.9869 26.895 13.9381C24.7227 13.8901 23.0193 12.1494 23.0249 9.98383C23.0306 7.7839 24.8053 6.02875 27.0057 6.04875Z" fill="#C74AE3"/>
<path d="M32.1365 18.4149C28.6905 21.1844 22.5327 20.1933 19.3431 16.4661C15.8345 12.3663 16.2442 6.21526 20.2682 2.57298C24.2433 -1.02451 30.393 -0.826114 34.1421 3.02096C37.7813 6.75524 37.9425 12.951 34.5365 16.4478C33.7413 15.6165 32.9453 14.7838 32.1109 13.9118C33.4022 12.1103 33.8023 10.0487 33.0303 7.83521C31.8776 4.53051 28.2264 2.78658 24.8966 3.91294C21.6061 5.0257 19.8049 8.56079 20.8325 11.8887C21.8713 15.2534 25.3952 17.1645 28.7771 16.1278C29.4504 15.9214 29.824 16.0421 30.2593 16.5421C30.8348 17.2045 31.5009 17.7885 32.1365 18.4149ZM0 6.06406C0 5.26569 0.153104 4.51531 0.458509 3.81534C0.763915 3.11536 1.17994 2.50258 1.70659 1.9778C2.23323 1.45301 2.84645 1.03783 3.54784 0.733037C4.24923 0.428247 5.00032 0.275452 5.80111 0.275452H14.678V4.13933H5.80111C5.53098 4.13933 5.27927 4.18893 5.04521 4.28733C4.81114 4.38653 4.60674 4.52331 4.43118 4.69771C4.25564 4.8729 4.11857 5.0769 4.01998 5.31049C3.92058 5.54409 3.87168 5.79528 3.87168 6.06486C3.87168 6.33445 3.92058 6.58805 4.01998 6.82564C4.11857 7.06324 4.25644 7.26963 4.43118 7.44483C4.60674 7.62001 4.81114 7.75681 5.04521 7.85521C5.27927 7.9544 5.53098 8.0032 5.80111 8.0032H9.67279C10.4736 8.0032 11.2263 8.1536 11.9325 8.45439C12.6387 8.75518 13.2543 9.16796 13.7809 9.69275C14.3076 10.2175 14.7204 10.8327 15.0218 11.5375C15.3231 12.2423 15.4739 12.9942 15.4739 13.7926C15.4739 14.5917 15.3231 15.3414 15.0218 16.0414C14.7204 16.7414 14.3067 17.3541 13.7809 17.8789C13.2551 18.4036 12.6387 18.8189 11.9325 19.1245C11.2263 19.43 10.4728 19.582 9.67279 19.582H1.07894V15.7181H9.67279C9.94292 15.7181 10.1938 15.6685 10.4287 15.5701C10.6627 15.4718 10.8672 15.3341 11.0427 15.1597C11.2183 14.9854 11.3553 14.7806 11.4539 14.547C11.5525 14.3134 11.6022 14.0622 11.6022 13.7926C11.6022 13.523 11.5525 13.2719 11.4539 13.0382C11.3545 12.8046 11.2175 12.6006 11.0427 12.4255C10.8672 12.2503 10.6627 12.1135 10.4287 12.0151C10.1946 11.9167 9.94292 11.8671 9.67279 11.8671H5.80111C5.00032 11.8671 4.24923 11.7143 3.54784 11.4095C2.84645 11.1047 2.23243 10.6895 1.70659 10.1639C1.18074 9.63915 0.763915 9.02398 0.458509 8.31999C0.153104 7.61521 0 6.86324 0 6.06406ZM53.0476 19.582H39.5024V0.274652H43.3741V15.7181H53.0468V19.582H53.0476ZM53.5334 6.06406C53.5334 5.26569 53.6865 4.51531 53.9919 3.81534C54.2973 3.11536 54.7133 2.50258 55.24 1.9778C55.7666 1.45301 56.3798 1.03783 57.0812 0.732237C57.7826 0.427447 58.5338 0.274652 59.3345 0.274652H68.2113V4.13853H59.3345C59.0643 4.13853 58.8127 4.18813 58.5786 4.28653C58.3445 4.38573 58.1401 4.52251 57.9646 4.69691C57.789 4.8721 57.652 5.0761 57.5534 5.30969C57.454 5.54329 57.4051 5.79448 57.4051 6.06406C57.4051 6.33366 57.454 6.58725 57.5534 6.82484C57.652 7.06244 57.7899 7.26883 57.9646 7.44403C58.1401 7.61921 58.3445 7.75601 58.5786 7.85441C58.8127 7.9536 59.0643 8.0024 59.3345 8.0024H63.2062C64.0069 8.0024 64.7597 8.1528 65.4659 8.45359C66.172 8.75438 66.7877 9.16716 67.3143 9.69195C67.841 10.2167 68.2537 10.8319 68.5552 11.5367C68.8566 12.2415 69.0073 12.9935 69.0073 13.7919C69.0073 14.591 68.8566 15.3406 68.5552 16.0405C68.2537 16.7405 67.8401 17.3533 67.3143 17.8781C66.7885 18.4029 66.172 18.818 65.4659 19.1236C64.7597 19.4292 64.0062 19.5812 63.2062 19.5812H54.6124V15.7174H63.2062C63.4764 15.7174 63.728 15.6677 63.9621 15.5694C64.1962 15.471 64.4006 15.3334 64.5761 15.159C64.7517 14.9838 64.8887 14.7797 64.9873 14.5463C65.0858 14.3126 65.1356 14.0614 65.1356 13.7919C65.1356 13.5222 65.0858 13.271 64.9873 13.0375C64.8879 12.8039 64.7508 12.5999 64.5761 12.4247C64.4006 12.2495 64.1962 12.1127 63.9621 12.0143C63.728 11.9159 63.4764 11.8663 63.2062 11.8663H59.3345C58.5338 11.8663 57.7826 11.7135 57.0812 11.4087C56.3798 11.1039 55.7658 10.6887 55.24 10.1631C54.7142 9.63835 54.2973 9.02318 53.9919 8.31839C53.6857 7.61521 53.5334 6.86324 53.5334 6.06406ZM86.991 17.6029C86.0916 18.3749 85.084 18.9676 83.9689 19.3804C82.8539 19.7933 81.6981 19.9996 80.502 19.9996C79.5851 19.9996 78.7009 19.8804 77.8512 19.6429C77.0015 19.4053 76.2055 19.0685 75.4633 18.6332C74.721 18.1981 74.0445 17.6749 73.4329 17.0645C72.8212 16.4541 72.297 15.779 71.861 15.0381C71.4249 14.2974 71.0874 13.503 70.8493 12.655C70.6112 11.8071 70.4919 10.9247 70.4919 10.0095C70.4919 9.09436 70.6112 8.2096 70.8493 7.35683C71.0874 6.50405 71.4249 5.70728 71.861 4.9673C72.297 4.22653 72.8204 3.55135 73.4329 2.94096C74.0445 2.33059 74.721 1.8082 75.4633 1.37221C76.2055 0.93703 77.0015 0.600242 77.8512 0.362649C78.7009 0.125057 79.5851 0.00586046 80.502 0.00586046C81.6981 0.00586046 82.8539 0.209854 83.9689 0.61864C85.084 1.02743 86.0916 1.62181 86.991 2.40259L84.9405 5.76888C84.3737 5.1585 83.7036 4.68971 82.9301 4.36173C82.1565 4.03452 81.347 3.87054 80.502 3.87054C79.6476 3.87054 78.8468 4.03213 78.1006 4.35533C77.3535 4.67851 76.7018 5.1161 76.1446 5.66808C75.5868 6.22006 75.1466 6.87124 74.8228 7.62001C74.4989 8.36959 74.337 9.16636 74.337 10.0095C74.337 10.8535 74.4989 11.6455 74.8228 12.3863C75.1466 13.127 75.5868 13.775 76.1446 14.3317C76.7025 14.8886 77.3542 15.3277 78.1006 15.651C78.8468 15.9741 79.6476 16.1357 80.502 16.1357C81.347 16.1357 82.1565 15.9718 82.9301 15.6445C83.7036 15.3174 84.3737 14.8478 84.9405 14.2374L86.991 17.6029ZM104.489 19.582H100.617V15.7181H92.873V19.582H89.0142V8.0032C89.0142 6.93524 89.2161 5.93208 89.6209 4.9937C90.0257 4.05613 90.5765 3.23696 91.2739 2.53618C91.9704 1.8362 92.7897 1.28423 93.7291 0.880233C94.6686 0.476245 95.6738 0.274652 96.7447 0.274652C97.8148 0.274652 98.82 0.476245 99.7603 0.880233C100.7 1.28423 101.521 1.8362 102.223 2.53618C102.924 3.23615 103.477 4.05533 103.882 4.9937C104.287 5.93208 104.489 6.93524 104.489 8.0032V19.582ZM100.617 11.8671V8.0032C100.617 7.47363 100.516 6.97284 100.313 6.50165C100.111 6.03046 99.8348 5.62008 99.4837 5.26969C99.1326 4.9193 98.7214 4.64331 98.2493 4.44171C97.7771 4.24013 97.2754 4.13853 96.7447 4.13853C96.2141 4.13853 95.7122 4.23933 95.2401 4.44171C94.7679 4.64331 94.3567 4.9193 94.0057 5.26969C93.6546 5.62008 93.378 6.03046 93.176 6.50165C92.9741 6.97284 92.8722 7.47363 92.8722 8.0032V11.8671H100.617ZM123.323 19.582H119.181L111.721 6.87204V19.582H107.849V0.274652H111.991L119.451 12.9982V0.274652H123.323V19.582Z" fill="#00EA88"/>
</g>
<defs>
<clipPath id="clip0_170_1350">
<rect width="124" height="20" fill="white"/>
</clipPath>
</defs>
</svg>
