<svg width="48" height="48" viewBox="0 0 48 48" fill="none" xmlns="http://www.w3.org/2000/svg">
<circle cx="24" cy="24" r="24" fill="#147EFF"/>
<path d="M31.8163 13C29.2216 13 25.8496 14.125 24.0015 16.0073V21.7202H15.0823V26.2767H19.5281V29.3751C19.0498 29.8307 17.5011 30.4372 16.2454 30.4372C12.5155 30.4372 10.072 27.917 10.072 23.9953C10.072 19.6211 12.7253 17.5533 16.156 17.5533C17.7664 17.5533 19.5867 18.2227 20.4227 19.134L22.4219 15.2154C20.7189 13.8516 18.692 13 15.5883 13C9.02614 13 5 17.8927 5 23.9984C5 30.6226 9.02614 34.9969 16.1868 34.9969C18.7814 34.9969 22.1535 33.8719 24.0015 31.9896V26.2767H32.9208V21.7202H28.475V18.6218C28.9532 18.1661 30.502 17.5596 31.7577 17.5596C35.4876 17.5596 37.9311 20.0798 37.9311 24.0016C37.9311 28.3758 35.2747 30.4435 31.8471 30.4435C30.2367 30.4435 28.4164 29.7742 27.5803 28.8629L25.5811 32.7815C27.2811 34.1484 29.3111 35 32.4117 35C38.9739 35 43 30.1073 43 24.0016C43.0031 17.3742 38.9739 13 31.8163 13Z" fill="white"/>
</svg>
