<svg width="24" height="24" viewBox="0 0 24 24" fill="none" xmlns="http://www.w3.org/2000/svg">
<circle cx="12" cy="12" r="12" fill="#12D6C2"/>
<path d="M15.9081 6.5C14.6108 6.5 12.9248 7.06249 12.0008 8.00364V10.8601H7.54116V13.1383H9.76403V14.6875C9.52492 14.9154 8.75055 15.2186 8.12272 15.2186C6.25773 15.2186 5.03601 13.9585 5.03601 11.9976C5.03601 9.81053 6.36263 8.77667 8.07798 8.77667C8.88321 8.77667 9.79333 9.11134 10.2114 9.56699L11.211 7.6077C10.3595 6.9258 9.34598 6.5 7.79415 6.5C4.51307 6.5 2.5 8.94636 2.5 11.9992C2.5 15.3113 4.51307 17.4984 8.09341 17.4984C9.39072 17.4984 11.0768 16.9359 12.0008 15.9948V13.1383H16.4604V10.8601H14.2375V9.31088C14.4766 9.08306 15.251 8.77982 15.8788 8.77982C17.7438 8.77982 18.9655 10.0399 18.9655 12.0008C18.9655 14.1879 17.6374 15.2218 15.9236 15.2218C15.1183 15.2218 14.2082 14.8871 13.7902 14.4314L12.7906 16.3907C13.6405 17.0742 14.6556 17.5 16.2059 17.5C19.4869 17.5 21.5 15.0536 21.5 12.0008C21.5015 8.68712 19.4869 6.5 15.9081 6.5Z" fill="white"/>
</svg>
