<svg width="255" height="30" viewBox="0 0 255 30" fill="none" xmlns="http://www.w3.org/2000/svg">
<g clip-path="url(#clip0_77_251)">
<path d="M36.4683 0.416674C32.9756 0.416674 28.4404 1.90834 25.9485 4.40417V11.9792H13.9419V18.0208H19.9349V22.1292C19.2911 22.7333 17.2021 23.5417 15.516 23.5417C10.499 23.5417 7.20978 20.2083 7.20978 15C7.20978 9.20001 10.7814 6.45834 15.3997 6.45834C17.5676 6.45834 20.0179 7.34584 21.1434 8.54167L23.8346 3.34584C21.5463 1.53334 18.8135 0.404175 14.6397 0.404175C5.80604 0.404175 0.382095 6.89167 0.382095 14.9875C0.382095 23.7708 5.80603 29.5708 15.4412 29.5708C18.934 29.5708 23.4733 28.0792 25.961 25.5833V18.0208H37.9676V11.9792H31.9788V7.87084C32.6226 7.26667 34.7116 6.45834 36.3977 6.45834C41.4147 6.45834 44.7039 9.79167 44.7039 15C44.7039 20.8 41.1323 23.5417 36.514 23.5417C34.3461 23.5417 31.8958 22.6542 30.7703 21.4583L28.0832 26.6542C30.3716 28.4667 33.1002 29.5958 37.2782 29.5958C46.1118 29.5958 51.5316 23.1083 51.5316 15.0125C51.5275 6.21667 46.0994 0.416674 36.4683 0.416674Z" fill="#147EFF"/>
<path d="M80.678 18.7084L75.2582 0.900024H68.7919L63.5341 18.7084L58.7954 0.900024H51.5275L59.8378 29.1H65.9844L71.7655 10.9709L77.6297 29.1H83.7721L91.6796 0.900024H85.4998L80.678 18.7084Z" fill="#147EFF"/>
<path d="M102.997 0.833374C100.829 0.833374 95.9697 0.912542 94.404 0.912542V29.1125H100.829V19.5292C101.87 19.6226 102.915 19.6629 103.96 19.65C110.464 19.65 114.343 15.2167 114.343 10.1834C114.351 5.29171 111.54 0.833374 102.997 0.833374ZM103.761 13.6042C102.78 13.5965 101.801 13.5283 100.829 13.4V6.94171C102.154 6.90421 102.797 6.86254 103.64 6.86254C105.929 6.86254 107.532 7.62921 107.532 10.125C107.524 12.8667 105.439 13.5917 103.753 13.5917L103.761 13.6042Z" fill="#147EFF"/>
<path d="M129.161 5.71245H133.925V10.7125C132.936 11.7041 131.138 12.2958 129.751 12.2958C125.926 12.2958 123.775 9.99162 123.775 6.50829C123.775 3.29579 125.926 0.720789 129.431 0.720789C130.748 0.659522 132.043 1.0734 133.082 1.88745L132.014 3.97079C131.381 3.42292 130.57 3.12649 129.734 3.13745C127.903 3.13745 126.482 4.22496 126.482 6.52496C126.482 8.58746 127.791 9.91245 129.78 9.91245C130.408 9.90307 131.018 9.70892 131.537 9.35412V8.14162H129.161V5.71245Z" fill="#147EFF"/>
<path d="M136.134 0.900024H138.684V9.69169H143.224V12.0834H136.134V0.900024Z" fill="#147EFF"/>
<path d="M149.565 0.708374C152.959 0.708374 155.492 2.92921 155.492 6.49587C155.492 9.88337 152.959 12.2834 149.565 12.2834C146.172 12.2834 143.639 10.0625 143.639 6.49587C143.639 3.25004 146.015 0.708374 149.565 0.708374ZM149.565 9.87504C151.684 9.87504 152.784 8.37505 152.784 6.48755C152.784 4.44171 151.368 3.10004 149.565 3.10004C147.763 3.10004 146.347 4.44171 146.347 6.48755C146.331 6.92371 146.403 7.35859 146.557 7.76671C146.711 8.17482 146.945 8.54796 147.245 8.86423C147.544 9.18051 147.904 9.43356 148.303 9.60857C148.701 9.78357 149.13 9.877 149.565 9.88338V9.87504Z" fill="#147EFF"/>
<path d="M157.564 0.933356C158.187 0.900023 159.732 0.837524 160.941 0.837524C163.603 0.837524 164.679 2.06669 164.679 3.61669C164.711 4.11008 164.609 4.60303 164.385 5.04321C164.16 5.48339 163.821 5.85435 163.404 6.11669V6.15002C164.234 6.45419 164.998 7.26669 164.998 8.70419C164.998 11.0542 163.179 12.1584 160.758 12.1584C159.691 12.1584 158.208 12.1292 157.556 12.0625L157.564 0.933356ZM160.114 3.30002V5.32919H160.945C161.601 5.32919 162.124 5.05836 162.124 4.24169C162.124 3.57086 161.518 3.23336 160.899 3.23336C160.636 3.23816 160.374 3.26043 160.114 3.30002ZM160.114 7.56669V9.65002C160.395 9.7239 160.684 9.75618 160.974 9.74586C161.962 9.74586 162.457 9.32919 162.457 8.56252C162.457 7.79586 161.929 7.55419 161.103 7.55419L160.114 7.56669Z" fill="#147EFF"/>
<path d="M170.597 0.900024H172.877L177.512 12.0834H174.787L173.865 9.73336H169.446L168.528 12.0834H165.962L170.597 0.900024ZM170.406 7.34169H172.898L171.652 4.17919L170.406 7.34169Z" fill="#147EFF"/>
<path d="M178.949 0.900024H181.49V9.69169H186.059V12.0834H178.949V0.900024Z" fill="#147EFF"/>
<path d="M195.407 5.71249H200.179V10.7125C199.191 11.7042 197.388 12.2958 196.005 12.2958C192.18 12.2958 190.029 9.99165 190.029 6.50832C190.029 3.29582 192.18 0.720821 195.686 0.720821C197.001 0.6587 198.295 1.07272 199.332 1.88749L198.265 3.97082C197.633 3.42255 196.824 3.12599 195.989 3.13749C194.157 3.13749 192.737 4.22499 192.737 6.52499C192.737 8.58749 194.045 9.91248 196.034 9.91248C196.661 9.90327 197.27 9.70907 197.787 9.35415V8.14165H195.416L195.407 5.71249Z" fill="#147EFF"/>
<path d="M205.603 0.900024H207.883L212.518 12.0834H209.794L208.867 9.73336H204.457L203.531 12.0834H200.964L205.603 0.900024ZM205.412 7.34169H207.904L206.658 4.17919L205.412 7.34169Z" fill="#147EFF"/>
<path d="M213.951 0.900024H216.517L219.96 5.61669L223.208 0.900024H225.617V12.0834H223.067V4.96252L219.96 9.32503H219.591L216.501 5.00002V12.0834H213.951V0.900024Z" fill="#147EFF"/>
<path d="M228.483 0.900024H235.094V3.30002H231.033V5.26669H234.617V7.66252H231.033V9.69169H235.256V12.0834H228.483V0.900024Z" fill="#147EFF"/>
<path d="M237.088 3.93751C237.088 2.21251 238.458 0.708346 240.688 0.708346C241.291 0.680343 241.894 0.776838 242.458 0.991851C243.023 1.20686 243.537 1.53582 243.969 1.95835L242.599 3.87502C242.391 3.63138 242.131 3.43757 241.838 3.3078C241.546 3.17802 241.228 3.11556 240.909 3.12501C240.211 3.12501 239.796 3.44168 239.796 3.95835C239.796 5.81251 244.447 5.36668 244.447 9.01252C244.447 10.9625 242.786 12.3042 240.622 12.3042C239.127 12.3042 237.391 11.6625 236.847 10.4667L238.296 8.72085C238.583 9.08282 238.947 9.37662 239.36 9.5812C239.774 9.78578 240.227 9.89607 240.688 9.90418C241.357 9.90418 241.739 9.57085 241.739 9.04168C241.739 7.34168 237.088 7.55001 237.088 3.93751Z" fill="#147EFF"/>
<path d="M135.91 29.1083H133.472L131.146 21.9166L128.854 29.1083H126.416L123.119 17.9166H126.001L127.882 25L129.959 17.9166H132.525L134.677 25L136.587 17.9166H139.041L135.91 29.1083Z" fill="#147EFF"/>
<path d="M145.329 17.7291C148.722 17.7291 151.256 19.95 151.256 23.5125C151.256 26.9041 148.722 29.3 145.329 29.3C141.936 29.3 139.403 27.0791 139.403 23.5125C139.403 20.2708 141.774 17.7291 145.329 17.7291ZM145.329 26.8958C147.447 26.8958 148.548 25.3916 148.548 23.5041C148.548 21.4583 147.128 20.1166 145.329 20.1166C143.531 20.1166 142.111 21.4583 142.111 23.5041C142.095 23.9406 142.166 24.376 142.319 24.7846C142.473 25.1932 142.707 25.5668 143.007 25.8835C143.307 26.2002 143.667 26.4537 144.065 26.6289C144.464 26.8042 144.894 26.8978 145.329 26.9041V26.8958Z" fill="#147EFF"/>
<path d="M153.328 29.1083V17.9166C153.947 17.9166 156.8 17.8833 157.12 17.8833C160.16 17.8833 161.244 19.4 161.244 21.4625C161.282 22.1262 161.124 22.7865 160.79 23.3608C160.456 23.9351 159.961 24.398 159.367 24.6916L162.614 29.1041H159.525L156.817 25.1875H155.874V29.1041L153.328 29.1083ZM155.874 20.3166V22.8166H156.8C157.772 22.8166 158.536 22.4625 158.536 21.5208C158.536 20.8958 158.216 20.3041 156.991 20.3041C156.609 20.2833 156.401 20.3 155.874 20.3166Z" fill="#147EFF"/>
<path d="M164.047 17.9166H166.597V26.7083H171.141V29.1041H164.047V17.9166Z" fill="#147EFF"/>
<path d="M172.731 17.9167H172.956C173.545 17.9167 175.522 17.8667 176.253 17.8667C180.718 17.8667 182.516 20.4417 182.516 23.4125C182.516 26.5459 180.381 29.1375 176.129 29.1375C175.539 29.1375 174.052 29.1042 173.005 29.1042H172.731V17.9167ZM175.281 20.3125V26.7084C175.618 26.7375 175.842 26.7375 176.208 26.7375C178.405 26.7375 179.808 25.5417 179.808 23.4042C179.808 21.3459 178.292 20.2584 176.224 20.2584C175.909 20.256 175.594 20.2755 175.281 20.3167V20.3125Z" fill="#147EFF"/>
<path d="M187.774 29.1083V17.9166C188.397 17.9166 190.324 17.8833 191.184 17.8833C194.577 17.8833 195.694 19.6583 195.694 21.5916C195.694 23.5916 194.149 25.3416 191.566 25.3416C191.15 25.347 190.734 25.3304 190.32 25.2916V29.0958L187.774 29.1083ZM190.324 20.3166V22.875C190.709 22.9262 191.098 22.9526 191.487 22.9541C192.155 22.9541 192.986 22.6666 192.986 21.5791C192.986 20.5875 192.346 20.2833 191.437 20.2833C191.105 20.2833 190.847 20.3 190.324 20.3166Z" fill="#147EFF"/>
<path d="M199.947 17.9166H202.227L206.861 29.1041H204.137L203.215 26.7541H198.8L197.874 29.1041H195.312L199.947 17.9166ZM199.764 24.3625H202.256L201.01 21.1958L199.764 24.3625Z" fill="#147EFF"/>
<path d="M207.738 20.9584C207.738 19.2292 209.108 17.7292 211.339 17.7292C211.94 17.6989 212.541 17.7924 213.106 18.0037C213.67 18.2151 214.185 18.54 214.62 18.9584L213.253 20.875C213.045 20.6316 212.785 20.438 212.493 20.3082C212.2 20.1785 211.882 20.1159 211.563 20.125C210.861 20.125 210.446 20.4459 210.446 20.9584C210.446 22.8125 215.101 22.3625 215.101 26.0084C215.101 27.9584 213.44 29.3 211.276 29.3C209.777 29.3 208.041 28.6625 207.497 27.4625L208.951 25.7209C209.237 26.083 209.599 26.3769 210.012 26.5815C210.425 26.7861 210.878 26.8963 211.339 26.9042C212.007 26.9042 212.389 26.5667 212.389 26.0417C212.389 24.3625 207.738 24.5834 207.738 20.9584Z" fill="#147EFF"/>
<path d="M216.613 20.9584C216.613 19.2292 217.983 17.7292 220.214 17.7292C220.815 17.6989 221.417 17.7924 221.981 18.0037C222.545 18.2151 223.06 18.54 223.495 18.9584L222.124 20.875C221.917 20.6317 221.657 20.4381 221.366 20.3083C221.074 20.1785 220.757 20.1159 220.438 20.125C219.736 20.125 219.321 20.4459 219.321 20.9584C219.321 22.8125 223.972 22.3625 223.972 26.0084C223.972 27.9584 222.311 29.3 220.151 29.3C218.652 29.3 216.916 28.6625 216.372 27.4625L217.826 25.7209C218.112 26.083 218.474 26.3769 218.887 26.5815C219.3 26.7861 219.753 26.8963 220.214 26.9042C220.882 26.9042 221.264 26.5667 221.264 26.0417C221.264 24.3625 216.613 24.5834 216.613 20.9584Z" fill="#147EFF"/>
<path d="M226.202 17.9166H228.752V29.1041H226.202V17.9166Z" fill="#147EFF"/>
<path d="M236.913 17.7291C240.306 17.7291 242.84 19.95 242.84 23.5125C242.84 26.9041 240.306 29.3 236.913 29.3C233.52 29.3 230.983 27.0791 230.983 23.5125C230.983 20.2708 233.358 17.7291 236.913 17.7291ZM236.913 26.8958C239.031 26.8958 240.132 25.3916 240.132 23.5041C240.132 21.4583 238.712 20.1166 236.913 20.1166C235.115 20.1166 233.695 21.4583 233.695 23.5041C233.678 23.9406 233.749 24.376 233.903 24.7846C234.057 25.1932 234.291 25.5668 234.591 25.8835C234.891 26.2002 235.251 26.4537 235.649 26.6289C236.048 26.8042 236.478 26.8978 236.913 26.9041V26.8958Z" fill="#147EFF"/>
<path d="M252.591 29.1083L247.3 22.3958V29.1083H244.908V17.9166H246.947L252.238 24.6625V17.9166H254.63V29.1041L252.591 29.1083Z" fill="#147EFF"/>
</g>
<defs>
<clipPath id="clip0_77_251">
<rect width="255" height="30" fill="white"/>
</clipPath>
</defs>
</svg>
